<?xml version="1.0" encoding="UTF-8" standalone="no"?>
<svg
   xmlns:dc="http://purl.org/dc/elements/1.1/"
   xmlns:cc="http://creativecommons.org/ns#"
   xmlns:rdf="http://www.w3.org/1999/02/22-rdf-syntax-ns#"
   xmlns:svg="http://www.w3.org/2000/svg"
   xmlns="http://www.w3.org/2000/svg"
   id="svg47"
   xml:space="preserve"
   viewBox="0 0 86.116516 85.77652"
   version="1.1"
   height="85.77652"
   width="86.116516"><metadata
     id="metadata10"><rdf:RDF><cc:Work
         rdf:about=""><dc:format>image/svg+xml</dc:format><dc:type
           rdf:resource="http://purl.org/dc/dcmitype/StillImage" /><dc:title></dc:title></cc:Work></rdf:RDF></metadata><defs
     id="defs21"><clipPath
       id="clipPath26"><path
         id="path12"
         d="M 0,68.75 H 68.75 V 0 H 0 Z" /></clipPath><clipPath
       id="clipPath42"><path
         id="path15"
         d="m 8.077,34.061 c 0,-15.605 12.647,-28.252 28.25,-28.252 15.604,0 28.251,12.647 28.251,28.252 0,15.601 -12.647,28.25 -28.251,28.25 -15.603,0 -28.25,-12.649 -28.25,-28.25" /></clipPath><clipPath
       id="clipPath54"><path
         id="path18"
         d="M 0,68.75 H 68.75 V 0 H 0 Z" /></clipPath></defs><g
     id="g45"
     transform="matrix(1.3333,0,0,-1.3333,-5.5478613,88.300459)"><g
       id="g31"
       clip-path="url(#clipPath26)"><g
         id="g25"
         transform="translate(66.494,34.06)"><path
           id="path23"
           stroke-width="4"
           stroke-miterlimit="10"
           stroke="#231f20"
           fill="none"
           d="m 0,0 c 0,-16.661 -13.506,-30.167 -30.167,-30.167 -16.66,0 -30.166,13.506 -30.166,30.167 0,16.66 13.506,30.167 30.166,30.167 C -13.506,30.167 0,16.66 0,0 Z" /></g><g
         id="g29"
         transform="translate(106.04,34.163)"><path
           id="path27"
           fill="#fff"
           d="m 0,0 c 0,-16.66 -13.506,-30.166 -30.167,-30.166 -16.66,0 -30.166,13.506 -30.166,30.166 0,16.66 13.506,30.167 30.166,30.167 C -13.506,30.167 0,16.66 0,0" /></g></g><g
       id="g37"
       clip-path="url(#clipPath42)"><text
         id="text35"
         font-weight="300"
         font-size="70px"
         font-family="'Helvetica Light'"
         fill="#2e3192"
         transform="matrix(1,0,0,-1,11.061,9.2085)"><tspan
           id="tspan33"
           y="0"
           x="0">K</tspan></text></g><g
       id="g43"
       clip-path="url(#clipPath54)"><text
         id="text41"
         font-weight="300"
         font-size="70px"
         font-family="'Helvetica Light'"
         fill="#1d6434"
         transform="matrix(1,0,0,-1,12.061,9.2085)"><tspan
           id="tspan39"
           y="0"
           x="0">B</tspan></text></g></g></svg>
