<?xml version="1.0" encoding="utf-8"?>
<!-- Generator: Adobe Illustrator 26.5.0, SVG Export Plug-In . SVG Version: 6.00 Build 0)  -->
<svg version="1.1"
	 id="svg47" xmlns:rdf="http://www.w3.org/1999/02/22-rdf-syntax-ns#" xmlns:svg="http://www.w3.org/2000/svg" xmlns:cc="http://creativecommons.org/ns#" xmlns:dc="http://purl.org/dc/elements/1.1/"
	 xmlns="http://www.w3.org/2000/svg" xmlns:xlink="http://www.w3.org/1999/xlink" x="0px" y="0px" viewBox="0 0 86.1 85.8"
	 style="enable-background:new 0 0 86.1 85.8;" xml:space="preserve">
<style type="text/css">
	.st0{fill:none;stroke:#231F20;stroke-width:5.3332;stroke-miterlimit:13.333;}
	.st1{clip-path:url(#SVGID_00000047040130670038236390000016670392990272103861_);}
	.st2{fill:#2E3192;}
	.st3{font-family:'Helvetica-Light';}
	.st4{font-size:93.331px;}
	.st5{fill:#1D6434;}
	.st6{fill:#FFFFFF;}
</style>
<g id="g45" transform="matrix(1.3333,0,0,-1.3333,-5.5478613,88.300459)">
	<g>
		<g id="g31">
			<g id="g25" transform="translate(66.494,34.06)">
				<path id="path23" class="st0" d="M0,0c0-16.7-13.5-30.2-30.2-30.2c-16.7,0-30.2,13.5-30.2,30.2c0,16.7,13.5,30.2,30.2,30.2
					C-13.5,30.2,0,16.7,0,0z"/>
			</g>
		</g>
	</g>
	<g>
		<defs>
			<path id="SVGID_1_" d="M8.1,34.1c0-15.6,12.6-28.3,28.2-28.3c15.6,0,28.3,12.6,28.3,28.3c0,15.6-12.6,28.2-28.3,28.2
				C20.7,62.3,8.1,49.7,8.1,34.1"/>
		</defs>
		<clipPath id="SVGID_00000085244416523973810550000004191272561183666857_">
			<use xlink:href="#SVGID_1_"  style="overflow:visible;"/>
		</clipPath>
		<g id="g37" style="clip-path:url(#SVGID_00000085244416523973810550000004191272561183666857_);">
			<text transform="matrix(0.75 0 0 -0.75 11.0613 9.2082)" class="st2 st3 st4">K</text>
		</g>
	</g>
	<g>
		<g id="g43">
			<text transform="matrix(0.75 0 0 -0.75 12.0611 9.2082)" class="st5 st3 st4">B</text>
		</g>
	</g>
</g>
<rect x="67.5" y="14.8" class="st6" width="18.7" height="56.1"/>
</svg>
